HIERARCHY
ROOT hip
{
  OFFSET 0 0 0
  CHANNELS 6 Xposition Yposition Zposition Zrotation Yrotation Xrotation
  JOINT abdomen
  {
    OFFSET 0 20.6881 -0.73152
    CHANNELS 3 Zrotation Xrotation Yrotation
    JOINT chest
    {
      OFFSET 0 11.7043 -0.48768
      CHANNELS 3 Zrotation Xrotation Yrotation
      JOINT neck
      {
        OFFSET 0 22.1894 -2.19456
        CHANNELS 3 Zrotation Xrotation Yrotation
        JOINT head
        {
          OFFSET -0.24384 7.07133 1.2192
          CHANNELS 3 Zrotation Xrotation Yrotation
          JOINT leftEye
          {
            OFFSET 4.14528 8.04674 8.04672
            CHANNELS 3 Zrotation Xrotation Yrotation
            End Site
            {
              OFFSET 1 0 0
            }
          }
          JOINT rightEye
          {
            OFFSET -3.6576 8.04674 8.04672
            CHANNELS 3 Zrotation Xrotation Yrotation
            End Site
            {
              OFFSET 1 0 0
            }
          }
        }
      }
      JOINT rCollar
      {
        OFFSET -2.68224 19.2634 -4.8768
        CHANNELS 3 Zrotation Xrotation Yrotation
        JOINT rShldr
        {
          OFFSET -8.77824 -1.95073 1.46304
          CHANNELS 3 Zrotation Xrotation Yrotation
          JOINT rForeArm
          {
            OFFSET -28.1742 -1.7115 0.48768
            CHANNELS 3 Zrotation Xrotation Yrotation
            JOINT rHand
            {
              OFFSET -22.5879 0.773209 7.07136
              CHANNELS 3 Zrotation Xrotation Yrotation
              JOINT rThumb1
              {
                OFFSET -1.2192 -0.487915 3.41376
                CHANNELS 3 Zrotation Xrotation Yrotation
                JOINT rThumb2
                {
                  OFFSET -3.37035 -0.52449 3.41376
                  CHANNELS 3 Zrotation Xrotation Yrotation
                  End Site
                  {
                    OFFSET -1.78271 -1.18214 1.43049
                  }
                }
              }
              JOINT rIndex1
              {
                OFFSET -7.75947 0.938293 5.60832
                CHANNELS 3 Zrotation Xrotation Yrotation
                JOINT rIndex2
                {
                  OFFSET -2.54057 -0.884171 1.56538
                  CHANNELS 3 Zrotation Xrotation Yrotation
                  End Site
                  {
                    OFFSET -1.62519 -0.234802 1.16502
                  }
                }
              }
              JOINT rMid1
              {
                OFFSET -8.24714 1.18213 3.41376
                CHANNELS 3 Zrotation Xrotation Yrotation
                JOINT rMid2
                {
                  OFFSET -3.10165 -0.590103 1.0647
                  CHANNELS 3 Zrotation Xrotation Yrotation
                  End Site
                  {
                    OFFSET -2.48547 -0.328903 0.83742
                  }
                }
              }
              JOINT rRing1
              {
                OFFSET -8.82822 0.546677 1.51678
                CHANNELS 3 Zrotation Xrotation Yrotation
                JOINT rRing2
                {
                  OFFSET -2.60934 -0.819778 -0.0198488
                  CHANNELS 3 Zrotation Xrotation Yrotation
                  End Site
                  {
                    OFFSET -2.33842 -0.294052 0.168128
                  }
                }
              }
              JOINT rPinky1
              {
                OFFSET -8.27202 -0.0477905 -0.4584
                CHANNELS 3 Zrotation Xrotation Yrotation
                JOINT rPinky2
                {
                  OFFSET -1.82734 -0.647385 -0.700984
                  CHANNELS 3 Zrotation Xrotation Yrotation
                  End Site
                  {
                    OFFSET -1.69225 -0.51767 -0.607171
                  }
                }
              }
            }
          }
        }
      }
      JOINT lCollar
      {
        OFFSET 2.68224 19.2634 -4.8768
        CHANNELS 3 Zrotation Xrotation Yrotation
        JOINT lShldr
        {
          OFFSET 8.77824 -1.95073 1.46304
          CHANNELS 3 Zrotation Xrotation Yrotation
          JOINT lForeArm
          {
            OFFSET 28.1742 -1.7115 0.48768
            CHANNELS 3 Zrotation Xrotation Yrotation
            JOINT lHand
            {
              OFFSET 22.5879 0.773209 7.07136
              CHANNELS 3 Zrotation Xrotation Yrotation
              JOINT lThumb1
              {
                OFFSET 1.2192 -0.487915 3.41376
                CHANNELS 3 Zrotation Xrotation Yrotation
                JOINT lThumb2
                {
                  OFFSET 3.37035 -0.52449 3.41376
                  CHANNELS 3 Zrotation Xrotation Yrotation
                  End Site
                  {
                    OFFSET 1.78271 -1.18214 1.43049
                  }
                }
              }
              JOINT lIndex1
              {
                OFFSET 7.75947 0.938293 5.60832
                CHANNELS 3 Zrotation Xrotation Yrotation
                JOINT lIndex2
                {
                  OFFSET 2.54057 -0.884171 1.56538
                  CHANNELS 3 Zrotation Xrotation Yrotation
                  End Site
                  {
                    OFFSET 1.62519 -0.234802 1.16502
                  }
                }
              }
              JOINT lMid1
              {
                OFFSET 8.24714 1.18213 3.41376
                CHANNELS 3 Zrotation Xrotation Yrotation
                JOINT lMid2
                {
                  OFFSET 3.10165 -0.590103 1.0647
                  CHANNELS 3 Zrotation Xrotation Yrotation
                  End Site
                  {
                    OFFSET 2.48547 -0.328903 0.83742
                  }
                }
              }
              JOINT lRing1
              {
                OFFSET 8.82822 0.546677 1.51678
                CHANNELS 3 Zrotation Xrotation Yrotation
                JOINT lRing2
                {
                  OFFSET 2.60934 -0.819778 -0.0198488
                  CHANNELS 3 Zrotation Xrotation Yrotation
                  End Site
                  {
                    OFFSET 2.33842 -0.294052 0.168128
                  }
                }
              }
              JOINT lPinky1
              {
                OFFSET 8.27202 -0.0477905 -0.4584
                CHANNELS 3 Zrotation Xrotation Yrotation
                JOINT lPinky2
                {
                  OFFSET 1.82734 -0.647385 -0.700984
                  CHANNELS 3 Zrotation Xrotation Yrotation
                  End Site
                  {
                    OFFSET 1.69225 -0.51767 -0.607171
                  }
                }
              }
            }
          }
        }
      }
    }
  }
  JOINT rButtock
  {
    OFFSET -8.77824 4.35084 1.2192
    CHANNELS 3 Zrotation Xrotation Yrotation
    JOINT rThigh
    {
      OFFSET 0 -1.70687 -2.19456
      CHANNELS 3 Zrotation Xrotation Yrotation
      JOINT rShin
      {
        OFFSET 0 -36.8199 0.73152
        CHANNELS 3 Zrotation Xrotation Yrotation
        JOINT rFoot
        {
          OFFSET 0.73152 -45.1104 -5.12064
          CHANNELS 3 Zrotation Xrotation Yrotation
          End Site
          {
            OFFSET -1.1221 -3.69964 12.103
          }
        }
      }
    }
  }
  JOINT lButtock
  {
    OFFSET 8.77824 4.35084 1.2192
    CHANNELS 3 Zrotation Xrotation Yrotation
    JOINT lThigh
    {
      OFFSET 0 -1.70687 -2.19456
      CHANNELS 3 Zrotation Xrotation Yrotation
      JOINT lShin
      {
        OFFSET 0 -36.8199 0.73152
        CHANNELS 3 Zrotation Xrotation Yrotation
        JOINT lFoot
        {
          OFFSET -0.73152 -45.1104 -5.12064
          CHANNELS 3 Zrotation Xrotation Yrotation
          End Site
          {
            OFFSET 1.1221 -3.69964 12.103
          }
        }
      }
    }
  }
}
MOTION
Frames:	9
Frame Time:	0.00833333
0.0 0.0 0.0 0.0 0.0 0.0 0.0 0.0 0.0 0.0 0.0 0.0 0.0 0.0 0.0 0.0 0.0 0.0 0.0 0.0 0.0 0.0 0.0 0.0 0.0 0.0 0.0 0.0 0.0 0.0 0.0 0.0 0.0 0.0 0.0 0.0 0.0 0.0 0.0 0.0 0.0 0.0 0.0 0.0 0.0 0.0 0.0 0.0 0.0 0.0 0.0 0.0 0.0 0.0 0.0 0.0 0.0 0.0 0.0 0.0 0.0 0.0 0.0 0.0 0.0 0.0 0.0 0.0 0.0 0.0 0.0 0.0 0.0 0.0 0.0 0.0 0.0 0.0 0.0 0.0 0.0 0.0 0.0 0.0 0.0 0.0 0.0 0.0 0.0 0.0 0.0 0.0 0.0 0.0 0.0 0.0 0.0 0.0 0.0 0.0 0.0 0.0 0.0 0.0 0.0 0.0 0.0 0.0 0.0 0.0 0.0 0.0 0.0 0.0 0.0 0.0 0.0 0.0 0.0 0.0 0.0 0.0 0.0 0.0 0.0 0.0 0.0 0.0 0.0 0.0 0.0 0.0
-75.9208 84.2391 -3.01147 -0.0 -0.0 -0.0 -0.0 -4.771896 -180.0 -0.0 -4.771896 180.0 -8.144544 9.765136 -77.762661 11.253376 5.904095 77.877376 0.0 -0.0 -0.0 0.0 -0.0 -0.0 -9.651699 34.836178 11.199233 -13.947974 -74.820692 -25.030574 9.258762 9.562199 -0.558988 -10.234798 30.401823 1.717121 178.619005 -18.760041 89.038626 -172.173994 -8.55842 95.944994 11.074283 -19.657551 -4.819032 0.797885 2.657394 3.818823 68.983989 -80.15399 40.578188 3.135352 -0.771991 3.152817 -72.350995 72.974965 90.218005 10.658936 29.531932 -12.354762 0.098846 0.258289 0.091255 -129.526392 -31.330985 -125.45001 80.1661 68.371792 -83.260848 155.928939 14.04033 -178.185661 -171.519799 -83.519439 -133.453761 -169.158969 -20.634543 -143.254297 -1.17751 -1.165975 0.169201 -43.293827 -69.02761 16.598512 164.632357 -40.669475 -122.446028 57.046732 54.412716 -52.849199 -6.533059 -20.414937 2.717988 170.753126 -17.337507 -142.998851 31.710267 -66.108601 46.284392 165.874072 -61.695746 -166.590458 0.318223 -0.823212 0.294225 0.691823 -1.957192 0.572231 -0.0 0.0 -0.0 -0.0 -0.0 -0.0 4.745368 1.155562 43.617915 -145.15307 -7.975903 57.863061 -0.0 0.0 -0.0 -0.0 -0.0 -0.0 -4.745368 1.155562 -43.617915 145.15307 -7.975903 -57.863061
-75.5978 84.4526 -2.64759 -0.0 -0.0 -0.0 -0.0 -4.771896 -180.0 -0.0 -4.771896 -180.0 -8.004821 8.256846 -69.161918 10.546126 4.563212 69.319265 0.0 -0.0 -0.0 0.0 -0.0 -0.0 -80.1661 68.371792 83.260848 -72.207361 86.566517 91.720375 3.885351 -21.668027 -33.449497 168.745514 -21.725915 143.067094 -5.433768 5.264911 1.077842 44.196641 -61.425847 -12.803615 -19.170572 24.114561 13.380841 -91.036251 53.313895 61.400211 -151.476684 17.84174 137.538824 176.566701 -60.956345 138.174625 0.004873 1.771387 0.556475 -0.12481 -0.163571 -0.356559 -12.374441 -24.158049 -11.75793 -130.678783 -30.033102 -127.813048 80.1661 68.371792 -83.260848 70.364354 86.569962 -89.873968 -64.722571 69.276532 75.344182 132.476396 70.015073 -110.958491 -1.871658 -1.856197 0.257905 30.347808 24.187161 -26.009724 19.170572 24.114561 -13.380841 70.771683 52.924494 -43.700498 0.571049 1.648356 -0.322148 157.110002 20.55821 -138.652269 78.571366 -72.041604 95.867435 -16.433819 -8.343784 -4.685898 7.144637 -15.70735 6.727898 160.465211 55.105467 151.234199 -0.0 0.0 -0.0 -0.0 -0.0 -0.0 3.819913 0.604099 34.22701 84.887662 -57.367749 -14.838107 -0.0 0.0 -0.0 -0.0 -0.0 -0.0 -3.819913 0.604099 -34.22701 -84.887662 -57.367749 14.838107
-75.6862 84.699 -2.19709 -0.0 -0.0 -0.0 -0.0 -4.771896 -180.0 -0.0 -4.771896 180.0 -8.144544 9.765136 -77.762661 11.253376 5.904095 77.877376 0.0 -0.0 -0.0 0.0 -0.0 -0.0 -9.651699 34.836178 11.199233 -13.947974 -74.820692 -25.030574 9.258762 9.562199 -0.558988 -10.234798 30.401823 1.717121 178.619005 -18.760041 89.038626 -172.173994 -8.55842 95.944994 11.074283 -19.657551 -4.819032 0.797885 2.657394 3.818823 68.983989 -80.15399 40.578188 3.135352 -0.771991 3.152817 -0.000473 -0.060845 -0.019116 0.88737 -15.73413 -1.855713 0.098846 0.258289 0.091255 -24.901383 -39.868085 -23.164725 80.1661 68.371792 -83.260848 155.928939 14.04033 -178.185661 -171.519799 -83.519439 -133.453761 -169.158969 -20.634543 -143.254297 0.508776 0.501603 -0.080342 37.283074 26.023905 -33.590854 160.10123 -33.161924 -122.700876 7.363297 40.698211 -9.667499 0.057679 0.167876 -0.032027 166.322793 -4.215404 -143.275406 0.021291 -1.725169 0.542387 165.664117 -1.94367 -171.694414 81.323898 -51.182704 79.740822 10.002254 -29.067865 11.487918 -0.0 0.0 -0.0 -0.0 -0.0 -0.0 4.304493 0.86717 39.030537 51.159233 -50.862044 -36.786167 -0.0 0.0 -0.0 -0.0 -0.0 -0.0 -4.304493 0.86717 -39.030537 -51.159233 -50.862044 36.786167
-75.6747 84.8392 -1.9528699999999999 -0.0 -0.0 -0.0 -0.0 -4.771896 -180.0 -0.0 -4.771896 -180.0 -8.004821 8.256846 -69.161918 10.546126 4.563212 69.319265 0.0 -0.0 -0.0 0.0 -0.0 -0.0 -80.1661 68.371792 83.260848 -70.364354 86.569962 89.873968 38.283446 57.521204 -50.957675 -156.84116 57.328009 132.451395 82.305236 -50.136196 32.954928 -137.448412 16.568924 102.371316 -43.801402 38.857645 34.194343 129.273914 -69.003199 81.960781 -155.059036 9.325541 140.041772 -164.130561 -17.706365 144.873806 -145.119721 0.310087 -179.225753 -140.382103 -33.367532 -173.39952 -4.582382 -10.700913 -4.29038 58.437299 86.388354 -22.259278 80.1661 68.371792 -83.260848 70.364354 86.569962 -89.873968 -64.722571 69.276532 75.344182 132.476396 70.015073 -110.958491 -5.189684 -5.174682 0.567148 162.286524 -75.728496 -119.818856 11.063308 15.60616 -7.220017 4.923088 6.308168 2.413595 0.571049 1.648356 -0.322148 157.110002 20.55821 -138.652269 78.571366 -72.041604 95.867435 155.533828 -33.90002 -168.996804 7.144637 -15.70735 6.727898 -31.264344 81.595497 -3.409601 -0.0 0.0 -0.0 -0.0 -0.0 -0.0 -2.721753 1.041334 -25.607042 80.981142 5.948809 -7.990811 -0.0 0.0 -0.0 -0.0 -0.0 -0.0 2.721753 1.041334 25.607042 -80.981142 5.948809 7.990811
-75.6129 84.9333 -1.68746 -0.0 -0.0 -0.0 -0.0 0.0 -0.0 0.0 0.0 0.0 -0.352604 0.077114 -2.052654 0.35514 -0.064434 2.053091 -0.0 0.0 -0.0 -0.0 0.0 -0.0 -81.707814 68.336987 84.818743 12.797553 63.199981 5.990851 -0.240073 -8.267997 -33.213491 163.358611 -34.133917 140.09171 -69.523098 38.077625 36.391367 19.164423 -22.018042 18.634835 -166.821797 -43.973781 122.061691 -72.66499 52.827037 66.608811 -171.805991 -40.921878 145.170237 93.038893 -76.393607 61.683831 -0.021291 -1.725169 -0.542387 -73.399981 -87.215037 -84.77911 32.017443 83.320556 6.228541 0.254593 -1.978766 -4.093868 158.417022 -29.366393 -166.793865 -6.019288 18.87558 -22.09947 178.054336 62.287201 179.248485 5.257748 16.589916 -0.194889 166.631339 -4.304864 -89.77151 -101.657216 -62.606536 -74.806856 64.086421 43.039976 -52.301274 176.926611 -34.47928 -121.298461 -6.908911 -21.623998 2.809719 166.306187 -4.545593 -142.077499 -0.000474 0.063775 -0.020036 0.067873 0.864583 -0.097182 -1.134951 3.04054 -1.043633 3.233932 -8.119851 2.885837 -0.0 0.0 -0.0 -0.0 -0.0 -0.0 -2.721753 1.041334 -25.607042 80.981142 5.948809 -7.990811 -0.0 0.0 -0.0 -0.0 -0.0 -0.0 2.721753 1.041334 25.607042 -80.981142 5.948809 7.990811
-75.5313 85.01 -1.42039 -0.0 -0.0 -0.0 -0.0 0.0 -0.0 0.0 0.0 0.0 -7.906765 12.08614 -91.106352 11.93363 8.136982 91.092829 0.0 -0.0 -0.0 0.0 -0.0 -0.0 -155.417258 -2.951435 161.718542 98.127956 -75.993146 75.587594 172.262332 -68.966461 168.991702 -6.877463 21.373673 0.558033 -178.51928 -16.064275 89.475724 -58.651844 -3.702983 11.428287 -19.170572 24.114561 13.380841 -14.473548 21.289084 -0.110268 -161.518715 -9.304265 143.625478 -99.174724 61.863 93.420261 -145.118942 0.185466 -179.186604 22.491753 39.867282 -4.519515 -8.191002 -17.575975 -7.729117 8.230919 26.585185 7.090885 155.417258 -2.951435 -161.718542 -98.127956 -75.993146 -75.587594 -165.117379 -0.207217 -166.643686 94.958528 74.477348 -75.479398 171.706035 -9.388422 -89.948992 -11.772091 -59.715975 -13.813325 -47.868975 -65.34622 -6.095069 -13.932287 1.288431 -4.970231 -89.035113 -81.393384 -59.759886 -2.750905 0.683342 -3.357737 -0.004873 1.771387 -0.556475 1.353385 -62.895094 9.879996 -9.599878 31.055827 -8.342915 129.06399 -30.355471 124.147798 -0.0 0.0 -0.0 -0.0 -0.0 -0.0 4.304493 0.86717 39.030537 51.159233 -50.862044 -36.786167 -0.0 0.0 -0.0 -0.0 -0.0 -0.0 -4.304493 0.86717 -39.030537 -51.159233 -50.862044 36.786167
-75.4478 85.0612 -1.19092 -0.0 -0.0 -0.0 -0.0 0.0 -0.0 0.0 0.0 0.0 -7.906765 12.08614 -91.106352 11.93363 8.136982 91.092829 0.0 0.0 0.0 0.0 0.0 0.0 -80.1661 68.371792 83.260848 -72.229525 86.566453 91.742579 9.661379 -1.58215 -32.955517 175.47603 -1.921217 145.15764 -68.482456 37.953515 35.65979 -137.460651 -28.480091 85.637019 -172.896918 -51.894009 120.180804 177.879035 -51.858668 100.201667 21.548599 -58.001218 0.002502 9.672509 -21.599011 1.461879 0.004875 1.770451 0.556181 -4.063291 33.344772 5.174268 -123.036034 -31.102513 -120.853588 46.870572 84.178222 -6.93695 142.973735 39.431617 -147.390037 133.899218 59.354097 -156.553002 -109.768982 -87.947359 -71.692533 -169.896477 -18.640209 -143.571185 -71.831195 -48.263725 -25.791675 108.669575 35.399196 -75.259713 7.259747 10.78091 -4.54709 96.975042 49.31773 -66.326696 -0.541241 -1.589941 0.294737 166.368461 -4.326257 -143.185529 145.099706 -1.521107 178.650165 67.655721 -78.231568 99.658242 -4.763426 13.903473 -4.303395 25.535606 -39.480632 23.846783 -0.0 0.0 -0.0 -0.0 -0.0 -0.0 4.304493 0.86717 39.030537 51.159233 -50.862044 -36.786167 -0.0 0.0 -0.0 -0.0 -0.0 -0.0 -4.304493 0.86717 -39.030537 -51.159233 -50.862044 36.786167
-75.3904 85.1072 -0.9660270000000001 -0.0 -0.0 -0.0 -0.0 0.0 -0.0 0.0 -0.0 -0.0 -8.004821 8.256846 -69.161918 10.546126 4.563212 69.319265 0.0 0.0 0.0 0.0 0.0 0.0 -13.015985 41.250126 14.798846 8.186856 -0.061689 -3.946023 165.485741 -5.542169 153.085562 -164.567995 48.227467 138.292464 -173.770775 -11.439911 89.891324 -40.150802 -21.907222 4.855099 12.216524 -21.784719 -5.120188 -166.447546 -8.792556 105.867859 -160.673322 -6.667841 143.245105 -160.700226 -6.742673 143.232568 -145.119208 0.226618 -179.199532 22.494826 39.866244 -4.529719 13.952237 48.150477 11.343504 -27.89851 -39.745331 -27.008238 155.460052 -3.227798 -161.777534 0.652215 44.090615 -27.027874 -20.531657 -1.367488 24.280681 167.903517 42.777295 -140.48079 -71.831195 -48.263725 -25.791675 12.703486 -38.80789 29.817847 166.821797 -43.973781 -122.061691 171.475422 -45.606673 -108.181888 -23.903801 -61.333833 -1.399383 160.136319 7.208191 -138.688709 -0.004873 1.771387 -0.556475 165.852149 -0.693915 -172.198195 140.595611 -1.002625 137.666435 -49.94316 81.578483 10.424701 -0.0 0.0 -0.0 -0.0 -0.0 -0.0 -2.721753 1.041334 -25.607042 80.981142 5.948809 -7.990811 -0.0 0.0 -0.0 -0.0 -0.0 -0.0 2.721753 1.041334 25.607042 -80.981142 5.948809 7.990811
